<svg xmlns="http://www.w3.org/2000/svg" viewBox="0 0 256 256" width="256" height="256">
  <rect width="256" height="256" rx="16" ry="16" fill="#08080f"/>

  <line x1="138" y1="28" x2="138" y2="228" stroke="#be123c" stroke-width="2.5"/>

  <line x1="28" y1="95" x2="138" y2="95" stroke="#e11d48" stroke-width="2"/>
  <line x1="138" y1="170" x2="228" y2="170" stroke="#e11d48" stroke-width="2"/>

  <line x1="75" y1="28" x2="75" y2="95" stroke="#f43f5e" stroke-width="1.5"/>
  <line x1="75" y1="95" x2="75" y2="228" stroke="#f43f5e" stroke-width="1.5"/>
  <line x1="185" y1="170" x2="185" y2="228" stroke="#f43f5e" stroke-width="1.5"/>
  <line x1="185" y1="28" x2="185" y2="170" stroke="#f43f5e" stroke-width="1.5"/>

  <line x1="28" y1="160" x2="75" y2="160" stroke="#fb7185" stroke-width="1"/>
  <line x1="75" y1="55" x2="138" y2="55" stroke="#fb7185" stroke-width="1"/>
  <line x1="138" y1="100" x2="185" y2="100" stroke="#fb7185" stroke-width="1"/>

  <rect x="29" y="29" width="46" height="66" fill="#f43f5e" opacity="0.04"/>
  <rect x="76" y="56" width="62" height="39" fill="#f43f5e" opacity="0.07"/>
  <rect x="29" y="96" width="46" height="64" fill="#f43f5e" opacity="0.06"/>
  <rect x="76" y="96" width="62" height="132" fill="#f43f5e" opacity="0.03"/>
  <rect x="139" y="29" width="46" height="66" fill="#fb7185" opacity="0.04"/>
  <rect x="186" y="29" width="42" height="141" fill="#f43f5e" opacity="0.03"/>
  <rect x="139" y="101" width="46" height="69" fill="#f43f5e" opacity="0.06"/>
  <rect x="186" y="171" width="42" height="57" fill="#fb7185" opacity="0.08"/>
  <rect x="139" y="171" width="46" height="57" fill="#f43f5e" opacity="0.05"/>
  <rect x="29" y="161" width="46" height="67" fill="#fb7185" opacity="0.08"/>
</svg>
